<svg xmlns="http://www.w3.org/2000/svg" xmlns:xlink="http://www.w3.org/1999/xlink" width="694" height="996" viewBox="0 0 694 996">
  <defs>
    <clipPath id="clip-path">
      <rect id="Rectangle_1" data-name="Rectangle 1" width="694" height="996"/>
    </clipPath>
  </defs>
  <g id="doctorbannerVector" clip-path="url(#clip-path)">
    <g id="doctorbanner" clip-path="url(#clip-path)">
      <g id="Group_79" data-name="Group 79" transform="translate(33.011 35.392)">
        <g id="Group_78" data-name="Group 78" transform="translate(0 0)">
          <g id="Group_42" data-name="Group 42">
            <path id="Path_62" data-name="Path 62" d="M214.027,521.991c-16.55,17.608-49.5,17.608-85.816,5.5-26.726-8.907-60.321-52.654-60.321-52.654a130.39,130.39,0,0,1,9.428-55.016h91.947a55.732,55.732,0,0,0,18.05,38.446C208.278,477.785,229.6,505.421,214.027,521.991Z" transform="translate(279.863 1301.494)" fill="#1b2346"/>
            <path id="Path_63" data-name="Path 63" d="M126.207,521.991c16.55,17.608,49.505,17.608,85.819,5.5,26.729-8.907,60.325-52.654,60.325-52.654a130.353,130.353,0,0,0-9.438-55.016H170.967a55.738,55.738,0,0,1-18.043,38.446C131.961,477.785,110.631,505.421,126.207,521.991Z" transform="translate(-16.571 1301.494)" fill="#1b2346"/>
            <path id="Path_64" data-name="Path 64" d="M425.907,311.247,409.72,824.73H286.839L251.351,395.169,208.163,824.73H85.007L72.212,314.4Z" transform="translate(52.706 913.12)" fill="#1b2346"/>
            <g id="Group_32" data-name="Group 32" transform="translate(110.734)">
              <path id="Path_65" data-name="Path 65" d="M132.794,396.532c53.35,43.768,91.6,48.5,158.955,29.636,60.769-16.083,103.345-67.739,122.961-126.646,8.513-43.2,26.456-187.36-58.315-188.385C331.115,63.564,279.1,44.78,226.65,43.759c-63.785-1.245-116.664,71.91-145.97,55.212-7.03,12.44-13.4,38,9.556,61.446C67.974,243.564,84.158,356.634,132.794,396.532Z" transform="translate(-63.493 -43.744)" fill="#131313"/>
              <g id="Group_23" data-name="Group 23" transform="translate(78.19 381.793)">
                <path id="Path_66" data-name="Path 66" d="M146.31,127.159c.855,12.024,3.172,62.009-.513,66.285-3.378,3.913-40.76,17.171-54.132,18.655,4.614,22.415,60.7,94.19,82.336,101.641a9.352,9.352,0,0,0,3.689.7,9.759,9.759,0,0,0,4-1.565c43.65-25.319,89.875-61.758,110.631-107.762-5.328-.229-35.906-3.68-39.454-11.274-4.179-8.939-6.976-49.477-3.775-66.636Z" transform="translate(-91.665 -127.159)" fill="#f0c3b3"/>
                <path id="Path_67" data-name="Path 67" d="M205.177,185.878c-3.56-18.64-3.808-47.111-1.652-58.678l-102.773-.041c.687,9.589,3.689,49.5.261,64.366C130.636,206.327,179.615,195.723,205.177,185.878Z" transform="translate(-46.103 -127.159)" fill="#d66563" opacity="0.3"/>
              </g>
              <g id="Group_24" data-name="Group 24" transform="translate(0 226.198)">
                <path id="Path_68" data-name="Path 68" d="M186.957,107.319a42.236,42.236,0,0,0-4.193-6.01,23.8,23.8,0,0,0-39.422,5.415,32.978,32.978,0,0,0-2.316,7.062c-4.527,20.359,3.681,42.511,19.009,56.65,5.754,5.309,12.834,9.74,20.656,10.156a14.734,14.734,0,0,0,9.653-2.5,17.08,17.08,0,0,0,5.232-7.668C199.667,159.981,201.077,130.685,186.957,107.319Z" transform="translate(-139.786 -93.156)" fill="#f0c3b3"/>
                <path id="Path_69" data-name="Path 69" d="M143.785,100.053c-7.8,6.664,1.084,39.5,13.3,50.764,4.586,4.229,10.229,7.763,16.458,8.092a11.76,11.76,0,0,0,7.694-1.991,13.592,13.592,0,0,0,4.166-6.11C188.664,142.49,162.144,84.376,143.785,100.053Z" transform="translate(-131.949 -78.073)" fill="#d66563" opacity="0.3"/>
                <path id="Path_70" data-name="Path 70" d="M143.268,98.279c6.073,1.232,10.775,5.941,14.853,10.609,1.634,1.872,3.236,3.775,4.678,5.8a46.608,46.608,0,0,1,8.43,29.847" transform="translate(-128.675 -74.867)" fill="none" stroke="#d66563" stroke-miterlimit="10" stroke-width="0.613"/>
                <path id="Path_71" data-name="Path 71" d="M154.443,104.649c-2.805-2.805-8.966-4.046-9.808,4.261-.521,5.131,3.565,11.539,7.626,14.715" transform="translate(-117.841 -59.652)" fill="none" stroke="#d66563" stroke-miterlimit="10" stroke-width="0.613"/>
              </g>
              <path id="Path_72" data-name="Path 72" d="M362.364,267.925c-.28,14.541-14.619,117.122-108.595,135.036C205.7,412.12,150.261,399,116.547,355.022,74.781,300.551,82.178,165.3,88.727,142.895,104.207,89.912,151.961,59.287,212.8,61.456,352.18,66.436,364.387,161.775,362.364,267.925Z" transform="translate(-46.97 19.23)" fill="#f0c3b3"/>
              <path id="Path_75" data-name="Path 75" d="M149.973,127.137c0,6.092-8.275,8.34-18.486,8.34S113,133.229,113,127.137s8.279-6.266,18.491-6.266S149.973,121.041,149.973,127.137Z" transform="translate(31.236 260.923)" fill="#d66563" opacity="0.3"/>
              <g id="Group_27" data-name="Group 27" transform="translate(189.711 187.818)">
                <path id="Path_76" data-name="Path 76" d="M163.3,108.435c-16.9-3.421-38.3-4.687-53.914-1.524-16.109,3.257-21.462-19.365-5.22-21.187,24.367-2.737,43.435.4,63.767,10.368,6.572,3.217,2.645,14.848-4.632,12.345Z" transform="translate(-94.326 -84.779)" fill="#131313"/>
              </g>
              <g id="Group_28" data-name="Group 28" transform="translate(57.296 185.597)">
                <path id="Path_77" data-name="Path 77" d="M130.867,106c17.04-2.608,38.479-2.856,53.927,1.048,15.937,4.023,22.358-18.321,6.224-20.917-24.213-3.893-43.414-1.671-64.193,7.314-6.715,2.907-3.346,14.705,4.042,12.55Z" transform="translate(-123.206 -84.293)" fill="#131313"/>
              </g>
              <ellipse id="Ellipse_9" data-name="Ellipse 9" cx="9.814" cy="18.227" rx="9.814" ry="18.227" transform="translate(85.092 241.293)" fill="#131313"/>
              <ellipse id="Ellipse_10" data-name="Ellipse 10" cx="9.814" cy="18.227" rx="9.814" ry="18.227" transform="translate(221.832 241.293)" fill="#131313"/>
              <ellipse id="Ellipse_11" data-name="Ellipse 11" cx="21.338" cy="15.241" rx="21.338" ry="15.241" transform="translate(59.855 286.157)" fill="#d66563" opacity="0.3"/>
              <ellipse id="Ellipse_12" data-name="Ellipse 12" cx="21.338" cy="15.241" rx="21.338" ry="15.241" transform="translate(235.854 287.178)" fill="#d66563" opacity="0.3"/>
              <g id="Group_29" data-name="Group 29" transform="translate(138.167 243.467)">
                <path id="Path_78" data-name="Path 78" d="M133.285,108.921c13.113-6.829,28.272-.083,15.937,12.221-11.374,11.342-29.329,7.933-34.643-6.545C109.456,100.645,124.428,113.53,133.285,108.921Z" transform="translate(-113.219 -63.805)" fill="#d66563" opacity="0.3"/>
                <path id="Path_79" data-name="Path 79" d="M124.97,103.651c4.709,0,10.724,4.546,6.051,9.2-4.307,4.3-11.108,3.007-13.117-2.477C115.963,105.093,121.189,103.651,124.97,103.651Z" transform="translate(-110.213 -72.921)" fill="#fff" opacity="0.5"/>
                <path id="Path_80" data-name="Path 80" d="M133.947,96.937c-2.22,10.239-12.445,29.792-14.23,37.527a18.558,18.558,0,0,0,.8,11.493,13.237,13.237,0,0,0,8.422,7.575" transform="translate(-119.158 -96.937)" fill="none" stroke="#d66563" stroke-miterlimit="10" stroke-width="0.613"/>
                <path id="Path_81" data-name="Path 81" d="M115.151,113.091a10.334,10.334,0,0,1,8.193-5.191" transform="translate(-90.165 -57.735)" fill="none" stroke="#d66563" stroke-miterlimit="10" stroke-width="0.613"/>
              </g>
              <path id="Path_82" data-name="Path 82" d="M384.829,149.98c-11.937-32.931-39.893-90.455-149.074-93.993-52.7-1.707-105.729,8.275-136.834,56.627-27.559,42.836-21.9,114.178-21.9,114.178,1.551,19.1,10.563,53.07,9.64,35.225-3.044-58.719,22.579-96.342,18.367-133.941,36.313,29.453,174.037,37.6,223.285,14.931-7.2,63.373,22.28,76.414,10.618,156.4,7.639-7.941,48.118-35.046,50.453-45.816C396.807,219.354,396.766,182.917,384.829,149.98Z" transform="translate(-46.446 -0.584)" fill="#131313"/>
              <circle id="Ellipse_13" data-name="Ellipse 13" cx="3.918" cy="3.918" r="3.918" transform="translate(90.842 245.312)" fill="#fff" opacity="0.5"/>
              <circle id="Ellipse_14" data-name="Ellipse 14" cx="3.918" cy="3.918" r="3.918" transform="translate(228.018 245.312)" fill="#fff" opacity="0.5"/>
              <g id="Group_30" data-name="Group 30" transform="translate(295.418 233.34)">
                <path id="Path_83" data-name="Path 83" d="M82.823,115.176C90.04,102.635,104,92.84,118.313,95.032a27.6,27.6,0,0,1,14.88,7.373c6.8,6.563,9.8,16.427,9.379,25.869s-3.954,18.522-8.627,26.739c-8.747,15.388-23.553,29.2-41.253,29.522-5.9.11-12.387-1.7-15.6-6.66a23.5,23.5,0,0,1-2.792-8.312C73.056,163.39,69.038,139.128,82.823,115.176Z" transform="translate(-72.788 -94.724)" fill="#f0c3b3"/>
                <path id="Path_84" data-name="Path 84" d="M108.582,99.727c12.44-.073,4.4,31.627-7.314,44.526C89.66,157.03,74.039,161.429,75.9,139.629S93.006,99.824,108.582,99.727Z" transform="translate(-58.572 -76.831)" fill="#d66563" opacity="0.3"/>
                <path id="Path_85" data-name="Path 85" d="M105.989,99.711c-6.073,1.227-10.775,5.936-14.853,10.6-1.634,1.877-3.236,3.775-4.678,5.808a46.588,46.588,0,0,0-8.43,29.847" transform="translate(-59.691 -76.888)" fill="none" stroke="#d66563" stroke-miterlimit="10" stroke-width="0.613"/>
                <path id="Path_86" data-name="Path 86" d="M80.584,106.08c2.805-2.805,8.966-4.046,9.808,4.261.517,5.131-3.565,11.539-7.626,14.715" transform="translate(-56.297 -61.675)" fill="none" stroke="#d66563" stroke-miterlimit="10" stroke-width="0.613"/>
              </g>
              <g id="Group_31" data-name="Group 31" transform="translate(219.442 43.06)" opacity="0.45">
                <ellipse id="Ellipse_15" data-name="Ellipse 15" cx="30.642" cy="15.893" rx="30.642" ry="15.893" transform="translate(57.358 51.333) rotate(-159.379)" fill="#fff" opacity="0.65"/>
                <ellipse id="Ellipse_16" data-name="Ellipse 16" cx="14.383" cy="7.461" rx="14.383" ry="7.461" transform="translate(82.693 71.711) rotate(-134.125)" fill="#fff" opacity="0.65"/>
              </g>
            </g>
            <path id="Path_87" data-name="Path 87" d="M74.644,178.339C117.366,164.89,183.062,143.2,183.062,143.2c6.417,24.871,57.478,59.666,57.478,59.666s66.175-35.6,78.825-60.048c14.807-.826,64.618,14.885,104.621,29.5C380.4,325.752,341.352,487.843,229.147,604.053,164.436,467.427,116.382,325.542,74.644,178.339Z" transform="translate(43.492 310.548)" fill="#068a88"/>
            <path id="Path_88" data-name="Path 88" d="M172.776,167.722c16.609,90.062,24.474,141.654,36.963,247.841-38.529,69.273-78.93,64.733-105.225-8.14,11.182-68.138,24.963-168.466,42.177-238.064C154.38,168.486,156.1,171.891,172.776,167.722Z" transform="translate(121.027 399.729)" fill="#004b4a"/>
            <path id="Path_89" data-name="Path 89" d="M60.231,284.02v16.716s-23.22,44.488-18.006,57.551,16.051,10.22,16.051,10.22-4.678,16.115,1.955,21.328S77.4,391.73,77.4,391.73s10.641,8.486,21.379-2.866c0,0,15,5.232,19.74-10.88,0,0,8.664.448,13.809-11.859s-20.808-69.649-20.808-69.649V279.562Z" transform="translate(486.346 799.782)" fill="#f0c3b3"/>
            <path id="Path_224" data-name="Path 224" d="M114.239,284.02v16.716s23.22,44.489,18.006,57.551-16.051,10.22-16.051,10.22,4.678,16.115-1.955,21.328-17.167,1.9-17.167,1.9-10.641,8.486-21.379-2.866c0,0-15,5.232-19.74-10.879,0,0-8.664.448-13.809-11.859s20.8-69.65,20.8-69.65V279.562Z" transform="translate(-41.462 799.782)" fill="#f0c3b3"/>
            <path id="Path_90" data-name="Path 90" d="M41.486,760.138c-7.149-42.909,8.817-247.154,9.438-264.946,1.909-54.709,30.469-264.813,59.794-295.1,18.774-19.388,90.1-42.817,111.181-49.294,2.467,17.072,41.394,243.515,98.744,335.581C365.176,411.516,437.584,166.787,441.6,144.2c44.24,10.083,102.9,34.117,124.97,58.279s41.744,148.641,66.066,292.711c23.293,137.983,37.815,272.519,34.094,275.985-13.782,12.806-90.569,16.029-111.263,7.85-4.619-1.826-33.673-275.669-33.673-275.669L543.465,999.4c-150.016,71.5-401.13-11.4-401.13-11.4,18.226-85.531,19.319-505.966,19.319-505.966-4.3-1.464-18.4,214.584-26.628,296.989C92.618,766.13,48.631,803.05,41.486,760.138Z" transform="translate(-39.648 315.612)" fill="#fff"/>
            <path id="Path_91" data-name="Path 91" d="M61.313,293.362c21.943-35.115-8.778-79,21.943-109.725,26.336,127.278,21.943,258.952,57.057,386.226,4.39,4.39,13.168,13.168,17.558,13.168,22.129-11.067,37.28-30.854,48.758-52.764,7.108,58.032,10.408,98,8.4,99.866-13.782,12.806-90.569,16.034-111.263,7.85C99.151,636.157,70.1,362.315,70.1,362.315L91.768,858.358a252.137,252.137,0,0,1-33.74,13.068c-9.864-195.662-26.006-391.7-14.275-591.231C48.146,288.972,56.924,297.752,61.313,293.362Z" transform="translate(412.05 456.657)" fill="#094370" opacity="0.15"/>
            <path id="Path_92" data-name="Path 92" d="M144.941,631.464c23.425-76.7,14.087-341.533,14.087-345.922,8.778-30.725,21.943-65.836,17.558-100.946,13.168,17.553,21.943,35.11,21.943,57.057,16.711,204.684-2.335,409.382,14.71,614.074-26.734-6.825-43.043-12.2-43.043-12.2C188.422,758,189.516,337.564,189.516,337.564c-4.32-1.473-16.469,211.348-24.745,293.9C160.1,625.052,151.3,636.293,144.941,631.464Z" transform="translate(-67.508 460.088)" fill="#094370" opacity="0.15"/>
            <path id="Path_93" data-name="Path 93" d="M77.659,163.7c10.293-3.913,20.254-7.4,28.752-10.257.708,62.888-6.7,145.307-6.343,195.086,0,0,35.376,18.857,57.085,25.467-83.394,61.446,22.559,120.3,66.449,172.964,41.743-53.226,89.765-93.366,123.772-139.47,0-4.39-19.882-34.8-29.585-50.64,21.943-8.774,36.868-22.354,58.81-31.133-10.916-66.151-7.135-122.243-15.355-180.577,9.419,2.659,19.127,5.754,28.8,9.287C398.173,227.62,399.2,278.31,399.2,351.5c-13.4,9.287-30.369,17.008-48.938,18.107,6.852,15.573,10.687,43.532,10.687,43.532s-47.08,127.315-127.5,191.707c6.811,141.2,9.7,282.17,43.312,420.03-19.947-.54-39.692-2.028-58.751-4.129-2.023-135.379-7.758-272.73,8.216-407.817C189.176,534.925,43.906,465.25,126.426,378.383c-17.553-4.39-43.886-17.558-43.886-26.336C75.8,288.01,76.821,226.545,77.659,163.7Z" transform="translate(57.262 318.964)" fill="#094370" opacity="0.15"/>
            <path id="Path_94" data-name="Path 94" d="M149.221,245.669c-9.117,1.753-20.271,1.341-27.238-.577-18.72-22.693-15.535-55.652-1.726-92.383,10.692,8.73,19.421,14.683,19.421,14.683s3.565-1.923,9.168-5.154C167.25,195.248,176.28,219.666,149.221,245.669Z" transform="translate(144.357 346.028)" fill="#004b4a"/>
            <path id="Path_95" data-name="Path 95" d="M174.959,213.351c-12.353,16.331-19.159,25.728-31.632,44.53-24.459-36.69-39.929-69.227-49.747-109.208,14.554-3.442,24.515-5.465,24.515-5.465,6.417,24.871,57.478,59.666,57.478,59.666s66.175-35.6,78.825-60.048c3.859-.215,10.129.426,17.951,1.726-2.713,46.717-37.925,82.986-69.021,116.26C192.773,239.423,185.963,231.637,174.959,213.351Z" transform="translate(108.463 310.539)" fill="#00a2a0"/>
            <g id="Group_33" data-name="Group 33" transform="translate(10.324 469.059)">
              <path id="Path_96" data-name="Path 96" d="M158.612,179.568c-8.612,44.448-12.623,130.816-9.556,175.981" transform="translate(-37.38 -26.956)" fill="none" stroke="#068a88" stroke-miterlimit="10" stroke-width="0.911"/>
              <path id="Path_97" data-name="Path 97" d="M150.561,183.167q7.97,45.965,17.32,91.677" transform="translate(-58.196 -14.083)" fill="none" stroke="#068a88" stroke-miterlimit="10" stroke-width="0.911"/>
              <path id="Path_98" data-name="Path 98" d="M71.123,188.523c3,37.572,6.151,132.409,10.49,169.853" transform="translate(391.66 5.075)" fill="none" stroke="#068a88" stroke-miterlimit="10" stroke-width="0.911"/>
              <path id="Path_99" data-name="Path 99" d="M141.314,274.507a148.269,148.269,0,0,1-99.806,1.534" transform="translate(467.494 312.641)" fill="none" stroke="#00cbcd" stroke-miterlimit="10" stroke-width="0.911"/>
              <path id="Path_225" data-name="Path 225" d="M123.2,274.507a97.807,97.807,0,0,1-81.691,1.58" transform="translate(-41.511 312.641)" fill="none" stroke="#00cbcd" stroke-miterlimit="10" stroke-width="0.911"/>
              <path id="Path_100" data-name="Path 100" d="M78.352,192.258c-3.044,23.425.582,103.227-8.573,125" transform="translate(401.073 18.435)" fill="none" stroke="#068a88" stroke-miterlimit="10" stroke-width="0.911"/>
              <path id="Path_101" data-name="Path 101" d="M218.078,146.225c4.541,53.678,10.577,124.568,15.123,178.243l-56.526,28.515c9.122,14.816,29.741,48.412,29.585,50.64-.165,2.371-85.177,104.053-123.772,139.471" transform="translate(188.05 -146.225)" fill="none" stroke="#068a88" stroke-miterlimit="10" stroke-width="0.911"/>
              <path id="Path_102" data-name="Path 102" d="M120.644,148.1c3.044,54.919-7.236,170.91-4.87,189.859,12,7.556,54.882,25.114,54.96,26.807.1,2.27-25.329,32.854-37.367,45.551,36.8,49.912,65.937,79.777,105.94,126.074" transform="translate(31.231 -139.521)" fill="none" stroke="#068a88" stroke-miterlimit="10" stroke-width="0.911"/>
              <path id="Path_103" data-name="Path 103" d="M120.072,219.569c0,146.23-8.22,385.393-2.453,503.535" transform="translate(149.78 116.127)" fill="none" stroke="#068a88" stroke-miterlimit="10" stroke-width="0.911"/>
            </g>
            <g id="Group_39" data-name="Group 39" transform="translate(145.038 430.561)">
              <g id="Group_34" data-name="Group 34" transform="translate(29.944 0)">
                <path id="Path_104" data-name="Path 104" d="M131.018,270.643l7.035-1.973c-6.394-22.811-13.241-85.979,10.646-106.63,18.944-16.382,43.028-16.928,43.345-16.928l.206-7.3a78.906,78.906,0,0,0-48.183,18.569C113.347,182.69,124.423,247.126,131.018,270.643Z" transform="translate(-123.539 -137.812)" fill="#004b4a"/>
              </g>
              <g id="Group_35" data-name="Group 35" transform="translate(68.547 182.449)">
                <path id="Path_105" data-name="Path 105" d="M134.494,345.487c.815-.407,19.979-10.161,28.021-30,8.688-21.4-27.142-119.419-35.129-137.814l-6.706,2.91c11.786,27.146,41.609,116.027,35.064,132.161-6.984,17.224-24.345,26.117-24.52,26.208Z" transform="translate(-120.681 -177.676)" fill="#004b4a"/>
              </g>
              <g id="Group_36" data-name="Group 36" transform="translate(0 191.476)">
                <path id="Path_106" data-name="Path 106" d="M171.061,343.349l2.065-7.008-1.035,3.5,1.039-3.5c-.183-.055-18.922-5.854-26.181-24.258-7.232-18.34,3.433-98.516,13.461-130.23l-6.971-2.206c-9.5,30.057-21.892,113.295-13.287,135.114S170.155,343.084,171.061,343.349Z" transform="translate(-137.253 -179.648)" fill="#004b4a"/>
              </g>
              <g id="Group_37" data-name="Group 37" transform="translate(64.527 330.571)">
                <path id="Path_107" data-name="Path 107" d="M131.79,238.34a9.084,9.084,0,0,0,5-1.18l17.676-10.047a9.133,9.133,0,1,0-9.031-15.878l-17.671,10.047a9.131,9.131,0,0,0,4.028,17.059Z" transform="translate(-123.139 -210.039)" fill="#004b4a"/>
              </g>
              <g id="Group_38" data-name="Group 38" transform="translate(11.934 335.187)">
                <path id="Path_108" data-name="Path 108" d="M166.956,239.335a9.138,9.138,0,0,0,3.849-17.622l-25.356-10.028a9.135,9.135,0,1,0-6.725,16.988L164.089,238.7a8.991,8.991,0,0,0,2.867.634Z" transform="translate(-132.949 -211.042)" fill="#004b4a"/>
              </g>
              <path id="Path_109" data-name="Path 109" d="M151.8,208.132l-4.385-38.5a10.961,10.961,0,1,1,21.781-2.481l4.353,38.241c12.083,4.861,28.9,21.439,41.49,72.335a10.96,10.96,0,1,1-21.279,5.259c-8.82-35.577-23.288-58.161-28.743-57.579-5.145,1.442-14.829,31.472-18.386,63.163a10.972,10.972,0,0,1-11.474,9.73c-.21-.014-.421-.032-.631-.059a10.957,10.957,0,0,1-9.681-12.1C127.65,261.092,134.7,221.479,151.8,208.132Z" transform="translate(-122.399 -67.627)" fill="#004b4a"/>
            </g>
            <g id="Group_41" data-name="Group 41" transform="translate(346.364 426.927)">
              <circle id="Ellipse_17" data-name="Ellipse 17" cx="25.067" cy="25.067" r="25.067" transform="translate(47.263 221.958)" fill="#004b4a"/>
              <circle id="Ellipse_18" data-name="Ellipse 18" cx="13.495" cy="13.495" r="13.495" transform="translate(58.84 233.42)" fill="#c5fffe"/>
              <g id="Group_40" data-name="Group 40">
                <path id="Path_110" data-name="Path 110" d="M162.352,365.953c1.062-3.245,21.508-96.511-6.1-158.68-18.512-41.72-43.275-67.91-74.586-70.253l.746,7.268c30.186,4.225,49.542,26.259,67.168,65.947,26.446,59.577,6.073,152.689,5.822,153.458Z" transform="translate(-81.669 -137.02)" fill="#004b4a"/>
              </g>
            </g>
          </g>
          <path id="Path_223" data-name="Path 223" d="M395.33,135.9c22.606,8.6,48.388,9.109,77.2.906,0,0-7.176,22.913-36.405,25.7S395.33,135.9,395.33,135.9Z" transform="translate(-159.226 200.053)" fill="#fff"/>
        </g>
        <path id="Path_226" data-name="Path 226" d="M395.33,135.9c22.606,8.6,48.388,9.109,77.2.906,0,0-7.176,22.913-36.405,25.7S395.33,135.9,395.33,135.9Z" transform="translate(-158.695 200.053)" fill="none" stroke="#d66563" stroke-miterlimit="10" stroke-width="0.613"/>
      </g>
    </g>
  </g>
</svg>
